# xmcd
#
# Track frame offsets:
#	182
#	17822
#	36287
#	53890
#	71010
#	89260
#	109887
#	125867
#	142427
#	159272
#	178602
#	198950
#	212365
#	230452
#	248815
#
# Disc length: 3580
#
# Revision: 2
# Processed by: cddbd v1.5.1PL0 Copyright (c) Steve Scherf et al.
# Submitted via: audiograbber 1.80.04
# Normalized: r1:DSETVAR1
#
DISCID=d90dfa0f
DTITLE=Various Artist - Culture Dance 10 Vol 2
DYEAR=1996
DGENRE=Pop
TTITLE0=P.Lion - Happy children
TTITLE1=Off - Electrica Salsa
TTITLE2=Fox the fox - Precious little diamond
TTITLE3=Falco - Der Kommisar
TTITLE4=Evelyn Thomas - High energy
TTITLE5=49Ers - Die Walkure
TTITLE6=S - express
TTITLE7=Inner City - Big fun
TTITLE8=Samantha Fox - Nothin's gonna stop me now
TTITLE9=Technotronic - Pump up the jam
TTITLE10=Axel Bauer - Cargo
TTITLE11=Les Avions - Nuit sauvage
TTITLE12=Le Club - Un fait divers et rien de plus
TTITLE13=Chagrin d'Amour - Chacun fait c'qui lui plaît
TTITLE14=Bandolero - Paris Latino
EXTD=
EXTT0=
EXTT1=
EXTT2=
EXTT3=
EXTT4=
EXTT5=
EXTT6=
EXTT7=
EXTT8=
EXTT9=
EXTT10=
EXTT11=
EXTT12=
EXTT13=
EXTT14=
PLAYORDER=
